<svg xmlns="http://www.w3.org/2000/svg" viewBox="0 0 256 256">
  <rect width="256" height="256" fill="#123F6D"/>
  <g transform="translate(50, 80)">
    <path d="M33.6 96.8c-18.5 0-33.6-15.1-33.6-33.6s15.1-33.6 33.6-33.6 33.6 15.1 33.6 33.6-15.1 33.6-33.6 33.6zm0-51.2c-9.7 0-17.6 7.9-17.6 17.6s7.9 17.6 17.6 17.6 17.6-7.9 17.6-17.6-7.9-17.6-17.6-17.6z" fill="#FFF"/>
    <path d="M89.6 96.8L73.3 64.4l16.3-32.4h32.6l16.3 32.4-16.3 32.4H89.6zm16.3-48.8l-8.2 16.3 8.2 16.3h16.3l8.2-16.3-8.2-16.3h-16.3z" fill="#FFF"/>
    <path d="M122.2 96.8c-18.5 0-33.6-15.1-33.6-33.6s15.1-33.6 33.6-33.6 33.6 15.1 33.6 33.6-15.1 33.6-33.6 33.6zm0-51.2c-9.7 0-17.6 7.9-17.6 17.6s7.9 17.6 17.6 17.6 17.6-7.9 17.6-17.6-7.9-17.6-17.6-17.6z" fill="#FFF"/>
  </g>
</svg>